<?xml version="1.0" encoding="UTF-8" standalone="no"?>
<svg
   xmlns:dc="http://purl.org/dc/elements/1.1/"
   xmlns:cc="http://creativecommons.org/ns#"
   xmlns:rdf="http://www.w3.org/1999/02/22-rdf-syntax-ns#"
   xmlns:svg="http://www.w3.org/2000/svg"
   xmlns="http://www.w3.org/2000/svg"
   viewBox="0 0 1097.84 1097.84"
   height="1097.84"
   width="1097.84"
   xml:space="preserve"
   id="svg2"
   version="1.1"><metadata
     id="metadata8"><rdf:RDF><cc:Work
         rdf:about=""><dc:format>image/svg+xml</dc:format><dc:type
           rdf:resource="http://purl.org/dc/dcmitype/StillImage" /></cc:Work></rdf:RDF></metadata><defs
     id="defs6" /><g
     transform="matrix(1.3333333,0,0,-1.3333333,0,1097.84)"
     id="g10"><g
       transform="scale(0.1)"
       id="g12"><path
         id="path14"
         style="fill:#1c3053;fill-opacity:1;fill-rule:nonzero;stroke:none"
         d="M 8228.77,4116.89 C 8228.77,1845.96 6387.82,5.01172 4116.89,5.01172 1845.95,5.01172 4.99609,1845.96 4.99609,4116.89 c 0,2270.93 1840.95391,4111.89 4111.89391,4111.89 2270.93,0 4111.88,-1840.96 4111.88,-4111.89" /><path
         id="path16"
         style="fill:none;stroke:#231f20;stroke-width:10;stroke-linecap:butt;stroke-linejoin:miter;stroke-miterlimit:10;stroke-dasharray:none;stroke-opacity:1"
         d="M 8228.77,4116.89 C 8228.77,1845.96 6387.82,5.01172 4116.89,5.01172 1845.95,5.01172 4.99609,1845.96 4.99609,4116.89 c 0,2270.93 1840.95391,4111.89 4111.89391,4111.89 2270.93,0 4111.88,-1840.96 4111.88,-4111.89 z" /><path
         id="path18"
         style="fill:#ffffff;fill-opacity:1;fill-rule:nonzero;stroke:none"
         d="m 4684.24,5048.96 h -206.8 v 399.42 h 206.8 z m 0,-566.02 h -206.8 v 399.43 h 206.8 z m 0,-566.01 h -206.8 v 399.42 h 206.8 z m 0,-566.03 h -206.8 v 399.43 h 206.8 z m -305.5,1698.06 H 4171.9 v 399.42 h 206.84 z m 0,-566.02 H 4171.9 v 399.43 h 206.84 z m 0,-566.01 H 4171.9 v 399.42 h 206.84 z m 0,-566.03 H 4171.9 v 399.43 h 206.84 z m -294.01,1698.06 h -206.85 v 399.42 h 206.85 z m 0,-566.02 h -206.85 v 399.43 h 206.85 z m 0,-566.01 h -206.85 v 399.42 h 206.85 z m 0,-566.03 h -206.85 v 399.43 h 206.85 z m -305.52,1698.06 h -206.82 v 399.42 h 206.82 z m 0,-566.02 h -206.82 v 399.43 h 206.82 z m 0,-566.01 h -206.82 v 399.42 h 206.82 z m 0,-566.03 h -206.82 v 399.43 h 206.82 z m 1042.7,2430.33 H 3434.72 V 2452.56 h 562.05 v 466.38 h 263.11 v -466.38 h 562.03 z M 2693.08,4698.6 h -347.81 v 297.94 h 347.81 z m 0,-558.64 h -347.81 v 297.94 h 347.81 z m 0,-558.66 h -347.81 v 297.95 h 347.81 z m 0,-558.64 h -347.81 v 297.95 h 347.81 z m 347.81,0 v 297.95 h 258.24 v 260.69 h -258.24 v 297.95 h 258.24 v 260.71 h -258.24 v 297.94 h 258.24 v 260.7 h -258.24 v 297.94 h 258.24 v 248.29 H 2113.39 V 2625.41 h 1185.74 v 397.25 z m 2438.47,-285.14 h -380.94 v 276.7 h 380.94 z m 467.26,0 V 4861.8 h -999.43 v -207.68 h 825.64 v -107.98 h -825.64 v -161.96 h 825.64 v -107.99 h -825.64 v -161.95 h 825.64 v -107.98 h -825.64 v -161.97 h 825.64 v -107.98 h -825.64 v -161.96 h 825.64 v -107.99 h -825.64 v -161.97 h 825.64 v -107.96 h -825.64 v -602.06 h 999.43 173.76 v 143.15 h -173.76" /><path
         id="path20"
         style="fill:#1c3053;fill-opacity:1;fill-rule:nonzero;stroke:none"
         d="M 8228.77,4116.89 C 8228.77,1845.96 6387.82,5.01172 4116.89,5.01172 1845.95,5.01172 4.99609,1845.96 4.99609,4116.89 c 0,2270.93 1840.95391,4111.89 4111.89391,4111.89 2270.93,0 4111.88,-1840.96 4111.88,-4111.89" /><path
         id="path22"
         style="fill:none;stroke:#231f20;stroke-width:10;stroke-linecap:butt;stroke-linejoin:miter;stroke-miterlimit:10;stroke-dasharray:none;stroke-opacity:1"
         d="M 8228.77,4116.89 C 8228.77,1845.96 6387.82,5.01172 4116.89,5.01172 1845.95,5.01172 4.99609,1845.96 4.99609,4116.89 c 0,2270.93 1840.95391,4111.89 4111.89391,4111.89 2270.93,0 4111.88,-1840.96 4111.88,-4111.89 z" /><path
         id="path24"
         style="fill:#1c3053;fill-opacity:1;fill-rule:nonzero;stroke:none"
         d="M 8228.77,4116.89 C 8228.77,1845.96 6387.82,5.01172 4116.89,5.01172 1845.95,5.01172 4.99609,1845.96 4.99609,4116.89 c 0,2270.93 1840.95391,4111.89 4111.89391,4111.89 2270.93,0 4111.88,-1840.96 4111.88,-4111.89" /><path
         id="path26"
         style="fill:none;stroke:#231f20;stroke-width:10;stroke-linecap:butt;stroke-linejoin:miter;stroke-miterlimit:10;stroke-dasharray:none;stroke-opacity:1"
         d="M 8228.77,4116.89 C 8228.77,1845.96 6387.82,5.01172 4116.89,5.01172 1845.95,5.01172 4.99609,1845.96 4.99609,4116.89 c 0,2270.93 1840.95391,4111.89 4111.89391,4111.89 2270.93,0 4111.88,-1840.96 4111.88,-4111.89 z" /><path
         id="path28"
         style="fill:#ffffff;fill-opacity:1;fill-rule:nonzero;stroke:none"
         d="m 4694.14,5048.96 h -210.41 v 399.42 h 210.41 z m 0,-566.02 h -210.41 v 399.43 h 210.41 z m 0,-566.01 h -210.41 v 399.42 h 210.41 z m 0,-566.03 h -210.41 v 399.43 h 210.41 z m -310.83,1698.06 h -210.45 v 399.42 h 210.45 z m 0,-566.02 h -210.45 v 399.43 h 210.45 z m 0,-566.01 h -210.45 v 399.42 h 210.45 z m 0,-566.03 h -210.45 v 399.43 h 210.45 z m -299.14,1698.06 h -210.46 v 399.42 h 210.46 z m 0,-566.02 h -210.46 v 399.43 h 210.46 z m 0,-566.01 h -210.46 v 399.42 h 210.46 z m 0,-566.03 h -210.46 v 399.43 h 210.46 z m -310.85,1698.06 h -210.44 v 399.42 h 210.44 z m 0,-566.02 h -210.44 v 399.43 h 210.44 z m 0,-566.01 h -210.44 v 399.42 h 210.44 z m 0,-566.03 h -210.44 v 399.43 h 210.44 z M 4834.21,5781.23 H 3422.81 V 2452.56 h 571.87 v 466.38 h 267.69 v -466.38 h 571.84 z M 2668.23,4698.6 h -353.88 v 297.94 h 353.88 z m 0,-558.64 h -353.88 v 297.94 h 353.88 z m 0,-558.66 h -353.88 v 297.95 h 353.88 z m 0,-558.64 h -353.88 v 297.95 h 353.88 z m 353.88,0 v 297.95 h 262.75 v 260.69 h -262.75 v 297.95 h 262.75 v 260.71 h -262.75 v 297.94 h 262.75 v 260.7 h -262.75 v 297.94 h 262.75 v 248.29 H 2078.43 V 2625.41 h 1206.43 v 397.25 z m 2481.03,-285.14 h -387.58 v 276.7 h 387.58 z m 475.42,0 V 4861.8 H 4961.68 v -207.68 h 840.05 v -107.98 h -840.05 v -161.96 h 840.05 v -107.99 h -840.05 v -161.95 h 840.05 v -107.98 h -840.05 v -161.97 h 840.05 v -107.98 h -840.05 v -161.96 h 840.05 v -107.99 h -840.05 v -161.97 h 840.05 v -107.96 h -840.05 v -602.06 h 1016.88 176.79 v 143.15 h -176.79" /></g></g></svg>